solid 
 facet normal -4.472136e-01  0.000000e+00  8.944272e-01
   outer loop
     vertex  5.400000e+00 -5.000000e-02  5.000000e-01
     vertex  5.000000e+00  5.000000e-02  3.000000e-01
     vertex  5.000000e+00 -5.000000e-02  3.000000e-01
   endloop
 endfacet
 facet normal -4.472136e-01  0.000000e+00  8.944272e-01
   outer loop
     vertex  5.400000e+00 -5.000000e-02  5.000000e-01
     vertex  5.400000e+00  5.000000e-02  5.000000e-01
     vertex  5.000000e+00  5.000000e-02  3.000000e-01
   endloop
 endfacet
 facet normal  0.000000e+00  0.000000e+00  1.000000e+00
   outer loop
     vertex  6.750000e+00 -5.000000e-02  5.000000e-01
     vertex  5.400000e+00  5.000000e-02  5.000000e-01
     vertex  5.400000e+00 -5.000000e-02  5.000000e-01
   endloop
 endfacet
 facet normal  0.000000e+00 -0.000000e+00  1.000000e+00
   outer loop
     vertex  6.750000e+00 -5.000000e-02  5.000000e-01
     vertex  6.750000e+00  5.000000e-02  5.000000e-01
     vertex  5.400000e+00  5.000000e-02  5.000000e-01
   endloop
 endfacet
 facet normal  3.713907e-01  0.000000e+00  9.284767e-01
   outer loop
     vertex  7.000000e+00 -5.000000e-02  4.000000e-01
     vertex  6.750000e+00  5.000000e-02  5.000000e-01
     vertex  6.750000e+00 -5.000000e-02  5.000000e-01
   endloop
 endfacet
 facet normal  3.713907e-01 -0.000000e+00  9.284767e-01
   outer loop
     vertex  7.000000e+00 -5.000000e-02  4.000000e-01
     vertex  7.000000e+00  5.000000e-02  4.000000e-01
     vertex  6.750000e+00  5.000000e-02  5.000000e-01
   endloop
 endfacet
 facet normal  4.993762e-02  0.000000e+00 -9.987523e-01
   outer loop
     vertex  5.000000e+00 -5.000000e-02  3.000000e-01
     vertex  7.000000e+00  5.000000e-02  4.000000e-01
     vertex  7.000000e+00 -5.000000e-02  4.000000e-01
   endloop
 endfacet
 facet normal  4.993762e-02  0.000000e+00 -9.987523e-01
   outer loop
     vertex  5.000000e+00 -5.000000e-02  3.000000e-01
     vertex  5.000000e+00  5.000000e-02  3.000000e-01
     vertex  7.000000e+00  5.000000e-02  4.000000e-01
   endloop
 endfacet
 facet normal -3.083953e-18 -1.000000e+00  1.310680e-16
   outer loop
     vertex  7.000000e+00 -5.000000e-02  4.000000e-01
     vertex  6.750000e+00 -5.000000e-02  5.000000e-01
     vertex  5.000000e+00 -5.000000e-02  3.000000e-01
   endloop
 endfacet
 facet normal  0.000000e+00 -1.000000e+00  1.040834e-16
   outer loop
     vertex  6.750000e+00 -5.000000e-02  5.000000e-01
     vertex  5.400000e+00 -5.000000e-02  5.000000e-01
     vertex  5.000000e+00 -5.000000e-02  3.000000e-01
   endloop
 endfacet
 facet normal  3.083953e-18  1.000000e+00 -1.310680e-16
   outer loop
     vertex  7.000000e+00  5.000000e-02  4.000000e-01
     vertex  5.000000e+00  5.000000e-02  3.000000e-01
     vertex  6.750000e+00  5.000000e-02  5.000000e-01
   endloop
 endfacet
 facet normal  0.000000e+00  1.000000e+00 -1.040834e-16
   outer loop
     vertex  6.750000e+00  5.000000e-02  5.000000e-01
     vertex  5.000000e+00  5.000000e-02  3.000000e-01
     vertex  5.400000e+00  5.000000e-02  5.000000e-01
   endloop
 endfacet
endsolid
